<svg xmlns="http://www.w3.org/2000/svg" viewBox="0 0 64 64">
  <rect x="6" y="10" width="52" height="48" rx="8" fill="#3b6df0"/>
  <rect x="6" y="10" width="52" height="14" rx="8" fill="#2851d4"/>
  <rect x="16" y="6" width="6" height="14" rx="2" fill="#1a3a9e"/>
  <rect x="42" y="6" width="6" height="14" rx="2" fill="#1a3a9e"/>
  <g fill="#ffffff">
    <rect x="14" y="30" width="6" height="6" rx="1.5"/>
    <rect x="24" y="30" width="6" height="6" rx="1.5" opacity="0.85"/>
    <rect x="34" y="30" width="6" height="6" rx="1.5" opacity="0.85"/>
    <rect x="44" y="30" width="6" height="6" rx="1.5" opacity="0.85"/>
    <rect x="14" y="40" width="6" height="6" rx="1.5" opacity="0.85"/>
    <rect x="24" y="40" width="6" height="6" rx="1.5"/>
    <rect x="34" y="40" width="6" height="6" rx="1.5" opacity="0.85"/>
    <rect x="44" y="40" width="6" height="6" rx="1.5" opacity="0.85"/>
    <rect x="14" y="50" width="6" height="6" rx="1.5" opacity="0.85"/>
    <rect x="24" y="50" width="6" height="6" rx="1.5" opacity="0.85"/>
    <rect x="34" y="50" width="6" height="6" rx="1.5"/>
    <rect x="44" y="50" width="6" height="6" rx="1.5" opacity="0.85"/>
  </g>
</svg>
